<?xml version="1.0" encoding="iso-8859-1"?>
<!-- Generator: Adobe Illustrator 18.1.1, SVG Export Plug-In . SVG Version: 6.00 Build 0)  -->
<svg version="1.1" id="Capa_1" xmlns="http://www.w3.org/2000/svg" xmlns:xlink="http://www.w3.org/1999/xlink" x="0px" y="0px"
	 viewBox="0 0 498.722 498.722" style="enable-background:new 0 0 498.722 498.722;" xml:space="preserve">
<g>
	<g>
		<path d="M246.126,1.189c-6.517,2.55-10.483,8.783-10.483,15.867v110.783c-17.567,0.85-46.183,3.4-76.783,10.483
			c-57.8,13.883-98.033,38.533-119.85,73.667c-24.65,39.95-3.683,100.3,62.9,179.917c46.467,55.533,98.317,100.583,100.3,102.567
			c3.117,2.833,7.083,4.25,11.05,4.25l0,0c9.35,0,17-7.65,17-17c0-3.4-1.133-6.517-2.833-9.35
			c-3.4-5.95-19.833-36.833-35.133-71.683c-29.75-67.717-30.033-92.65-28.617-100.017c2.833-15.867,31.45-18.417,48.45-18.417
			c10.2,0,20.117,0.85,27.483,1.7l5.667,102.283c0.283,6.517,4.25,12.183,10.2,14.733c5.95,2.55,12.75,1.417,17.85-2.833
			l190.4-164.333c3.683-3.117,5.667-7.367,5.95-12.183s-1.7-9.35-4.817-12.75l-200.317-204
			C260.009,0.339,252.643-1.361,246.126,1.189z M269.643,58.706l158.383,161.5l-150.733,130.05l-4.533-81.6
			c-0.567-7.65-5.95-14.167-13.6-15.583c-0.85-0.283-22.383-4.25-47.033-4.25c-60.917,0-78.2,25.217-81.883,46.467
			c-3.967,21.817,4.533,57.233,25.783,107.383c-9.35-10.2-18.983-20.967-28.333-32.017c-54.4-65.167-75.65-114.75-59.783-139.967
			c41.367-67.15,168.3-69.133,182.75-69.133c0.85,0,1.417,0,1.7,0c4.533,0,9.067-1.7,12.183-4.817c3.4-3.117,5.1-7.65,5.1-12.183
			L269.643,58.706L269.643,58.706z"/>
	</g>
</g>
<g>
</g>
<g>
</g>
<g>
</g>
<g>
</g>
<g>
</g>
<g>
</g>
<g>
</g>
<g>
</g>
<g>
</g>
<g>
</g>
<g>
</g>
<g>
</g>
<g>
</g>
<g>
</g>
<g>
</g>
</svg>
