<?xml version="1.0" encoding="iso-8859-1"?>
<!-- Generator: Adobe Illustrator 18.1.1, SVG Export Plug-In . SVG Version: 6.00 Build 0)  -->
<svg version="1.1" id="Capa_1" xmlns="http://www.w3.org/2000/svg" xmlns:xlink="http://www.w3.org/1999/xlink" x="0px" y="0px"
	 viewBox="0 0 23.318 23.318" style="enable-background:new 0 0 23.318 23.318;" xml:space="preserve">
<g>
	<g>
		<circle style="fill:#010002;" cx="8.622" cy="4.729" r="4.729"/>
		<path style="fill:#010002;" d="M15.504,12.121c-0.614,0-1.203,0.104-1.757,0.286c-1.169-1.498-3.026-2.471-5.125-2.471
			c-3.54,0.001-6.408,2.757-6.408,6.161v3.421h7.994c0.751,2.206,2.839,3.8,5.296,3.8c3.088,0,5.599-2.512,5.599-5.599
			S18.592,12.121,15.504,12.121z M11.14,17.719c0-2.406,1.958-4.365,4.364-4.365c2.408,0,4.366,1.959,4.366,4.365
			c0,2.407-1.958,4.365-4.366,4.365C13.098,22.084,11.14,20.126,11.14,17.719z"/>
		<path style="fill:#010002;" d="M16.493,17.558c0,0,1.066-1.063,1.596-1.593l-0.983-0.983c-0.528,0.529-1.594,1.596-1.594,1.596
			s-1.238-1.238-1.71-1.711l-0.982,0.981c0.472,0.472,1.712,1.71,1.712,1.71s-1.067,1.066-1.595,1.596l0.982,0.98
			c0.526-0.527,1.593-1.594,1.593-1.594s1.237,1.236,1.71,1.711l0.981-0.983C17.73,18.795,16.493,17.558,16.493,17.558z"/>
	</g>
</g>
<g>
</g>
<g>
</g>
<g>
</g>
<g>
</g>
<g>
</g>
<g>
</g>
<g>
</g>
<g>
</g>
<g>
</g>
<g>
</g>
<g>
</g>
<g>
</g>
<g>
</g>
<g>
</g>
<g>
</g>
</svg>
